<?xml version="1.0" encoding="UTF-8"?>
<svg xmlns="http://www.w3.org/2000/svg" viewBox="0 0 24 24" width="512" height="512">
  <path d="M17,9h-7V7c0-1.657,1.343-3,3-3,1.13,0,2.146,.626,2.661,1.635,.251,.492,.854,.687,1.346,.436,.492-.252,.687-.854,.436-1.346-0.859-1.682-2.561-2.725-4.443-2.725-2.761,0-5,2.239-5,5v2h-1c-1.657,0-3,1.343-3,3v7c0,1.657,1.343,3,3,3h10c1.657,0,3-1.343,3-3v-7c0-1.657-1.343-3-3-3Zm-4,7.723V18c0,.552-.448,1-1,1s-1-.448-1-1v-1.277c-.595-.347-1-.985-1-1.723,0-1.105,.895-2,2-2s2,.895,2,2c0,.738-.405,1.376-1,1.723Z"/>
</svg>
