<?xml version="1.0" encoding="UTF-8"?>
<svg xmlns="http://www.w3.org/2000/svg" viewBox="0 0 24 24" width="512" height="512">
  <path d="M3,20.5c-.552,0-1-.448-1-1V4.5c0-.552,.448-1,1-1s1,.448,1,1v15c0,.552-.448,1-1,1Zm5.5,0c-.829,0-1.5-.671-1.5-1.5v-3c0-.829,.671-1.5,1.5-1.5s1.5,.671,1.5,1.5v3c0,.829-.671,1.5-1.5,1.5Zm6,0c-.829,0-1.5-.671-1.5-1.5V10c0-.829,.671-1.5,1.5-1.5s1.5,.671,1.5,1.5v9c0,.829-.671,1.5-1.5,1.5Zm6,0c-.829,0-1.5-.671-1.5-1.5V5c0-.829,.671-1.5,1.5-1.5s1.5,.671,1.5,1.5v14c0,.829-.671,1.5-1.5,1.5Z"/>
</svg>
